<?xml version="1.0" encoding="utf-8"?>
<!-- Generator: Adobe Illustrator 26.0.3, SVG Export Plug-In . SVG Version: 6.00 Build 0)  -->
<svg version="1.0" id="Layer_1" xmlns="http://www.w3.org/2000/svg" xmlns:xlink="http://www.w3.org/1999/xlink" x="0px" y="0px"
	 viewBox="0 0 778.6 575.1" style="enable-background:new 0 0 778.6 575.1;" xml:space="preserve">
<style type="text/css">
	.st0{fill:#FFC627;}
	.st1{fill:#002D73;}
	.st2{fill:#FFFFFF;}
</style>
<g>
	<path class="st0" d="M631.6,457.1l-50.1-29V485c-51.8-24.5-115.9-39.5-188.4-39.5c-71.5,0-135.8,14.4-187.3,38.5v-59
		c-21.5,8.8-41.3,21.3-58.4,37.1L147,260.4h484.6V457.1z"/>
	<path class="st1" d="M624.6,445.6l-48.9-27.4v59.3c-50.3-23.3-112.6-37.2-182.9-37.2c-69.4,0-131.5,13.6-181.5,36.2v-59.8
		c-20.3,7.7-39.4,18.2-56.8,31.3l-0.4-182.2h470.5V445.6z"/>
	<path class="st2" d="M393.3,290.7h0.4c0.4,0.1,0.8,0.3,1.2,0.5l0,0c0.5,0.4,0.9,1,0.9,1.6c0.1,0.3,0.1,0.7,0,1.1v17.1h-13.2v-18.2
		c0.3-0.6,0.7-1.2,1.2-1.8l0,0l0.5-0.4c0.4-0.2,0.9-0.4,1.4-0.4v-7.4h-21v7.8c0.6,0,1.1,0.2,1.6,0.5l0.4,0.3l0,0
		c0.3,0.3,0.6,0.7,0.8,1.1l0.6,1.8v53.2c-0.2,0.7-0.4,1.3-0.7,1.9l-0.6,1l-1.3,0.7h-0.8v8.1h5.6l5.6-0.3H387v-8
		c-0.5,0-1-0.2-1.4-0.5c-0.7-0.6-1.3-1.3-1.7-2.2v-22.7h13.2v22.7c-0.1,0.7-0.4,1.3-0.9,1.8c-0.8,0.8-1.6,0.7-2.4,0.9v8h11.4
		l5.7,0.3h5.3v-8c-0.9,0.1-1.8-0.2-2.4-0.8l-0.7-1v-0.9c-0.2-0.8-0.4-1.6-0.5-2.5v-52.6c0.2-0.6,0.5-1.1,0.9-1.6l0,0
		c0.3-0.3,0.7-0.4,1.1-0.5h1.6v-8.4h-22.9V290.7z M262.2,348.2l-1.3,0.3l-1.3,0.2c-0.1,1.3-0.3,2.6-0.6,3.9c-0.3,2.2-1.4,4.2-3,5.7
		c-0.5,0-0.9,0.4-1.4,0.4l-3.3,0.7l-3.3,0.8l-3.3,0.7l-3.2,1v-27.2c0.6-0.2,1.3-0.3,1.9-0.4l1.8-0.2l2-0.3l1.9-0.2
		c0.5-0.1,1-0.1,1.4,0c0.8,0.2,2,1.5,2.2,5.7l1.3-0.3h1.3l1.3-0.2h1.4v-28.1h-5.4c0,2.5-0.7,6.1-2.3,6.3c-0.5,0-1.2,0.4-1.8,0.4
		h-1.8l-1.8,0.3H243l-1.7,0.2v-17.8l3.2-0.2h9.8c0.6,0.1,1.1,0.2,1.7,0.4c1.2,1.4,2,3.1,2.2,4.9l0.6,3.8h5.6v-26.1h-42.3v10.7h1
		c0.7,0,1.8,0.5,2.5,4.5l0,0v68.2l-0.4,3.1c0,1.6-0.8,3.1-2.1,3.9h-0.3c0,0,0,0.2-0.4,0.2h-0.4v11l10.6-3.5l4.9-1.4l6-1.8l10.8-2.8
		l10.7-2.4v-24.7h-1.4L262.2,348.2z M318.3,291.4c0.4,0,0.8,0.1,1.2,0.3l0.7,0.4l0.7,1c0.1,0.4,0.3,0.8,0.6,1.1v4.7l-1.2,8.2l-1,8.3
		l-1,8.7l-0.9,8.3l0,0l-1.2-8.6l-1.3-8.6l-1.2-8.6l-1-8.2v-4.9c0-0.4,0.5-0.7,0.6-1.2l0.9-0.7l0.4-0.3h0.5v-8.5h-21.2v8.8l0,0
		c0.2,0.1,0.4,0.2,0.6,0.2c0.3,0.1,0.7,0.3,0.9,0.5l1.2,1.9c0.2,1.3,0.5,2.7,0.8,4.1c0,0.6,0,1.2,0,1.8v3.8l-1.2,7.6l-1.1,7.9
		l-1.2,7.7l-0.6,4.9l-0.4,2.9l-0.4-2.9l-0.8-6.2l-1.2-9.1l-1.2-9.1l-0.5-9v-4.1l1-2.3c0.3-0.1,0.6-0.3,0.7-0.5h0.5v-9h-21.5v9.4
		l0.5,0.2l0.7,0.8c0.5,0.6,0.9,1.2,1.3,1.8l0.6,1.4l0.3,2v1l2.5,17.5l2.3,15.4l0.3,2l2.5,17.3v1.1l2,13.5l0.4,2.5l3.5-0.7l3.6-0.7
		l3.6-0.7l2.9-0.4h0.6l1.2-9.8c0.1-1.3,0.3-2.6,0.5-3.8c0.2-1.3,0.5-3.7,0.7-5.6c0.3-3,1-6.1,1.2-9.2l0.8-5.5l0.5-3.7l0.5,3.7
		l0.9,5.2l1.2,9l0.9,6.1l0.4,2.8l1.4,9.1l3.4-0.5l3.3-0.4l3.3-0.4l3.3-0.4l1.5-10.3l0.9-6.4l2.1-14l0.4-2.4l2.5-16.1l2.5-15.4v-0.8
		l0.6-2.7c0.4-1.1,1-2.2,1.8-3.1h0.2l0.6-0.3l0.6-0.2v-8.4h-16.3V291.4z M201.5,294.4L201.5,294.4l1.3,0.9l0.6,1.4l0.3,1.5v25.4
		l-3.4-9.8L197,304l-1.7-5.2l-1.7-5.1l-0.5-1.6l-2.7-8.7h-20.3v13l0,0l0.3,0.2h0.5c0.7,0.6,1.2,1.3,1.6,2.1l0.6,1.4V388l-1.1,3.4
		l-0.6,1l-0.5,0.5h-0.5v0.4h-0.3v13.4l4.4-2.5l4.4-2.2l4.5-2.1l4.4-2.2v-11.7H186c-0.1-0.3-0.4-0.6-0.7-0.5
		c-0.4-0.7-0.7-1.5-0.9-2.3v-3.5l0,0v-58.3l3.8,10.9l0.9,2.7l4.9,13.2l1.7,4.5l3.1,8.2l2.2,5.4l2.7,7v4.7c-0.3,0.6-0.6,1.2-0.8,1.8
		l0,0v0.6c0,0-0.5,1-0.7,1c-0.2,0-0.6,0.7-1.1,0.8l0,0v0.3l0,0v10.3l4.5-1.8l4.7-1.8l4.4-1.6l4.6-1.6v-10.9h-0.3
		c-0.7-0.3-1.4-0.9-1.8-1.6c-0.3-0.8-0.4-1.5-0.6-2.3v-72.7c0.1-0.8,0.3-1.7,0.6-2.5c0.4-0.8,1-1.5,1.8-1.9h0.3V283h-17.7
		L201.5,294.4z M470.7,355.3c-1.1-0.6-2-1.5-2.6-2.6l0,0c-0.6-2.1-1.1-4.6-1.6-7.2l-2.5-13l-0.5-2.9l-3.3-15.7l-2.8-15.3v-0.2
		c-0.4-2.1-0.8-4.3-1.3-6.5c-0.6-3-1.2-5.9-1.7-8.9h-18.4l-1.8,8.8l-1.1,5.9v0.9l-2.7,13.7c-0.8,4.9-2,9.8-3,14.7l-1,5.5l-1.7,8.9
		l-1.4,5.5c-0.8,1.9-1.3,4.1-3,3.9l0,0v8.7h4.2l4.3,0.3l4.3,0.4l4.4,0.2v-8.1l0,0l-1.9-1.6c-0.5-1.2-0.8-2.5-0.7-3.8v-2.1l0.3-1.9
		c0.2-0.7,0.3-1.4,0.3-2c0.2-0.6,0.4-1.2,0.5-1.8h3.3l3.6,0.2l2.6,0.4l3.5,0.2l0.4,2.1l0.3,2.1c0.2,0.7,0.4,1.3,0.5,2l0.5,2.1v2.7
		c0.1,0.8-0.3,1.5-1,1.9c-0.4,0.2-0.9,0.3-1.3,0.3l0,0v8.7l5.8,0.5l5.8,0.7l5.8,0.7l6,0.8v-8.8l0,0L470.7,355.3z M444.5,324.7h-6.4
		l1.1-5.4l1.1-5.6l1.1-5.4l1.2-5.3l0.9,5.4l1.1,5.6l1.1,5.3l1,5.7L444.5,324.7z M608.3,298.5L608.3,298.5c0.4-0.9,1-1.6,1.9-2.1h0.3
		v-0.2l0,0V283h-16v12.1l0,0v0.2h0.5l1.2,1.1l0.7,1.5v0.4l0.4,2.5v25.9l-2.7-11.5l-3.3-11l-1.8-5.9l-1.5-4.9l-0.4-1.7l-2.7-8.7H563
		v10.9h0.8c1,0.9,1.7,2,2.2,3.3v75.5l-1.1,2.1c-0.3,0-0.5,0.3-0.6,0.5H563v10.9l4.4,1.5l4.4,1.6l4.4,1.8l4.4,1.6v-11.4l-0.3-0.4H580
		l-0.3-0.4l0,0l-0.5-0.5l0,0l-0.6-0.7c-0.4-1-0.8-2-1-3v-57.3l4.5,13.8v0.5l4.9,15.1l1.5,4.9l3.3,10.6l0.9,2.9l3.9,13.2v0.4l0.3,1.4
		v3.4c-0.5,0.6-0.8,1.3-1,2.1c-0.3,0-0.5,0.5-0.7,0.4s-0.7,0.2-1.1,0l0,0v10.7l4.5,2.1l4.5,2.2l4.5,2.1l4.7,2.3v-13.6l-0.3-0.4
		c-0.9-1-1.6-2.2-2-3.5l-0.5-3v-84.7L608.3,298.5z M554.8,355.6l-1.5-0.3l-1.3-0.3c0,4.9-1.7,8.4-3.6,8.7c-0.4,0.1-0.9,0.1-1.3,0
		l-3.3-0.8l-3.3-0.8l-3.3-0.8l-3.2-0.7v-26.9l1.8,0.3l1.9,0.2l1.9,0.2l1.9,0.4l1.6,0.4c0.8,0.7,1.9,2.3,2.2,6.6l1.2,0.3l1.3,0.2
		l1.4,0.3l1.3,0.2v-29.7H545c0,2.5-0.8,6.3-2.3,6.1H541l-1.9-0.2l-3.6-0.2h-1.7v-19.1h6.3l3.3,0.2h3.2l1.7,0.7
		c1.2,1.6,2.1,3.5,2.4,5.4l0.5,4.2h4.3l1.6,0.3V283h-42.4v9.5h1.2c0.7,0,1.8,0.5,2.4,4.1v61.2l-0.3,2.7c0.1,1.3-0.9,2.5-2.2,2.6
		h-1.2v9.5l10.7,2.6L536,378l6.8,2l4,1.2l10.7,3.4v-28.3l-1.4-0.4L554.8,355.6z M494.1,291.9l0.9,0.2c0.2,0.2,0.5,0.3,0.7,0.3
		l0.6,0.8l1.1,2.8v3.5l-1.4,9.4l-1.6,9.4l-1.6,9.4l-0.8,4.9l-0.8,4.9l-0.7-4.9l-0.8-4.9l-3.1-19l-2-9.6v-5l1.4-2.3l0.8-0.2h0.6V283
		h-22.4v8.6h0.6l0.2,0.3l0,0c0.1,0.1,0.3,0.1,0.4,0c0.6,0.6,1.2,1.4,1.6,2.2c0.6,1.4,1,2.9,1.2,4.4l0,0l5.8,33.5v0.6l2.9,16.2
		l0.7,4.1l2.4,13.2l2.4,0.4h1.1l11.1,2l0.4-2.2l2.4-13.6v-1.2c0.9-5.4,2-11.3,2.8-17l0.4-2.1l0,0c0.9-4.9,1.9-9.8,2.6-15l3-17.4
		v-2.2l0.5-1.4c0.5-1.3,1.2-2.5,2-3.7c0.4-0.1,0.7-0.3,0.9-0.5h0.6v-9.2h-17L494.1,291.9z"/>
	<path class="st0" d="M250.8,173.3l-4.3,3.6l4.3-4.2V173.3z M259.8,165.3c-7.3,0.5-14.7,0.8-22.1,1.2c16.2-13.7,33.8-25.7,52.6-35.6
		c-7,0.3-13.9,0.8-20.9,1.3c24.1-17.7,40-27.5,71.9-32.4l-10.8-4.9l11.6-3.9c37.8-12.3,97.9-5.4,130.2,16.1
		c6.8-3.6,13.3-4.5,19.1,1.4c-3.3,9.2,3.8,12.6,8.3,20.1c6.9,3,12.2,8.8,14.3,16.1c7.9,6.1,16.8,12.9,16.6,22.7
		c0,3.6-0.7,7.1-0.5,10.7c0.7,18.2,10.2,34.9,20.8,50.4c17.6,6.7,9.2,28.1-1.6,36.9c-2.2,18.6-22.5,19.6-39.8,18.1
		c-10.2,9.8-27.3,7.6-39.2,1.4c-11.2-5.8-12.1-13.8-14.4-23.5c-4.8-0.8-9-3.7-11.4-7.9c-1.2,2-2.4,4-3.6,6.1H289
		c-29.2-14.2-62-19.4-94.2-15.1l-12.6,1.6C205.5,216.8,231.5,189.8,259.8,165.3L259.8,165.3z"/>
	<path class="st1" d="M344.1,95.7c48-16,110.5,3.4,127.6,17.7h0.8c1.1-1.2,2.4-2.1,3.9-2.7c2.5-0.9,6.6-2.4,8.6-0.6
		c-2.7,8.8,6.8,15.2,10.2,22.1c6.5,2.9,12.6,8.2,13.2,14.7c6.7,5.4,15.9,11,16.4,19.6c-3.6,24.8,8.6,46.1,22.1,65.7
		c1.4,0.3,2.8,0.8,4.1,1.4c3.9,3.9,5.2,9.8,3.2,15c-2,5.8-5.8,10.9-10.8,14.6c0,3.9-1.4,7.6-3.9,10.6c-8,6.8-22.4,5.5-33.1,4.9
		c-1.3,1.8-3,3.3-4.9,4.4c-8.4,4.6-21,2.1-28.6-2.1c-10-4.6-9.8-14.7-12.3-23.1l-5.3-1.3c-4.1-1.6-6.9-5.4-7.1-9.8l-4.5-1.5
		c-3.3,4.7-6.3,9.6-9,14.7H300.1c-32.3-17.8-69.5-24.9-106.2-20.1c16.1-20.6,56.6-59.2,56.6-59.3c7.1-5.9,15.8-13.9,23.4-20.2
		c-7.2,0-14.4,0.5-20.8,0.8c15.7-13.1,33.4-23.6,52.3-31.3c3-1.3,6.5-1.9,9.4-3.3c-9.5-0.7-19.1-0.7-28.6,0
		c20.6-14.7,47.4-22.5,75.7-23.6c-5.7-2.8-12-4.5-17.7-7L344.1,95.7z"/>
	<path class="st0" d="M366.7,93.8c53.8-4.1,94.6,13.8,110,31.8c-6-0.6-12.1-0.7-18.2-0.4c-2.9,0-4.9,0.5-8.3,0
		c-6-10.2-18.9-16-30.6-20.4c-21-6-42.8-8.9-64.6-8.8l5.5-1c1.9-0.5,4.2-0.4,6.2-1L366.7,93.8z"/>
	<path class="st0" d="M369,101.8c9.2,1,21,3.9,27.5,10.9l-3.9,3.1c-5.7,4.5-7.7,12.3-4.9,19c-1,1.5-1.7,3.2-2.1,4.9
		c-6.3,1.6-10,2.2-15,3.5c-0.4-2.1,0.4-4.2,2.1-5.5l12-2.6c-0.3-0.7-0.3-1.5-0.9-2.2c-2.3-7.4,0.7-15.4,7.3-19.6v-0.9
		c-30.5-5.9-60.9,1.6-88.6,8.8c8.8-4.3,18-7.6,27.5-9.8c16.4-3.3,33.2-4.9,49.9-5c-3.5-1.8-7.1-3.5-10.8-4.9V101.8z"/>
	<path class="st2" d="M409.9,124.3c-2.9-6.3-8.1-14.7-2.5-21.2c4.9,15.6,27.6,13.2,35.5,25.6c-3.9,1.5-8.8,1.9-10.2,5.9
		c0.8,3,1.1,6.1,0.8,9.2C425.5,138.6,414.9,132.7,409.9,124.3z"/>
	<path class="st2" d="M474.2,115.8c2.2-1.8,4.9-3,7.8-3.5c-1.1,6.8,4.2,11.8,6.8,17.5l-4.9-1.4c-1.3-4.5-6.2-8-9.8-12.7L474.2,115.8
		z"/>
	<path class="st0" d="M322.4,120.6l8-1.5c4.9,1.3,10.8,2,15.6,3.6c-6,4.1-8.9,11.4-7.5,18.5c0.8,2.2,0.8,4.9,2.6,6.5
		c2.9-1.5,6.4-2.3,9.5-3.6c-1.4,1.4-1,3.9-1.1,5.5c-4.9,1.7-10.1,4.3-15.4,6c-0.7-1-0.9-2.3-0.5-3.5c0.7-1.3,1.9-2.2,3.2-2.6
		c-4-8-3-17.6,2.7-24.5l-0.5-0.7c-25.3,7.8-49.5,18.6-72.2,32.2l1.8-2.2c18.5-14.7,41.6-23.3,64.8-31.4v-0.3
		C329.8,121.6,325.8,121.5,322.4,120.6L322.4,120.6z"/>
	<path class="st0" d="M438.3,134.1c9.8-5.9,22.4-5.7,34.3-4.6c11.6,2,26.2,5.7,30.2,16l-4.9-3.1c-14.7-8-37.1-12.3-53.4-4
		c4,14.1,1.9,31.3-12.2,40.2c-0.7,3.8-0.4,7.6,0.7,11.3c9.8,20.9,36.7,26.7,51.6,44.1l4.2-2.5c16-6.6,31.6,0,42.1,7.7
		c3.6-2.3,8-3.1,12.2-2.3c3,0.6,5.5,2.7,6.6,5.5c0.9,2.2,0.5,4.8-0.9,6.7c-1.5-2.8-4.5-4.6-7.7-4.5c-4.5,0.5-9.8,1.7-11.4,5.6
		c-4.6-7.1-11.8-12-20-13.7c-10.1-1.6-20.4,1.6-27.8,8.9c-3.3-5.7-7.6-10.7-12.9-14.7c-21.4-12.9-48.5-26.6-47.1-53.3
		c10.8-9.2,18-22.6,16.4-35.8C438.7,139,436.7,136.3,438.3,134.1L438.3,134.1z"/>
	<path class="st0" d="M390.6,134.4c5.8-0.7,11.7-1.1,17.5-1.2c-1.3,1-2,2.7-1.6,4.4c-6,0.5-10.4,1-17.7,1.6
		C388.4,137.4,389.1,135.5,390.6,134.4L390.6,134.4z"/>
	<path class="st2" d="M408.3,136c0.6-1,1.3-2.2,2.9-2.3l5.7,4.9l-8.6-0.4V136z"/>
	<path class="st0" d="M455.4,138.5c5.5-0.8,11.1-0.8,16.6,0c19.6,3.8,39.2,11.6,48.7,26.8c-6.3,24.2,6.2,46.5,17.9,66.8
		c-2.5,0.9-4.9,2.1-7.6,2.7c-9.5-26.2-43.7-12-44.5-33.3c4.4-0.4,8.6-2.1,12-4.9l0,0c-5.9,0.8-11.9-0.1-17.3-2.5
		c-2.3,0.7-4.6,1.1-7,1.4c-6,0.3-11.8-2.1-15.8-6.5c-5.4-6.9-5.6-16.4-0.5-23.5c0.6-1.3,3.2-2.4,2.5-4.1c-1.2-5,1.3-10.2,5.9-12.4
		c-3-3.1-5.6-5.3-8.4-7.9c-0.8-0.6-2.5-1.6-2.4-2.5L455.4,138.5z"/>
	<path class="st2" d="M435.1,165.4c4.2-8.4,5.9-17.8,4.9-27.1c6.7,14.2,0.7,30.4-11.4,40.2c-3,19.1,16.4,30.3,31.2,40
		c8.4,6.2,18.4,9.8,23.4,18.5c4.6-2.7,9.7-4.5,15-5.4c3-0.7,6.1-0.7,9.1,0c8.8,1.2,17,5.1,23.5,11.2c3.5-2.5,8-3.4,12.2-2.5
		c1.5,0.6,2.7,1.8,3.4,3.3l-2.8-1c-4.7-0.7-9.4,0.7-12.9,3.9h-0.9c-4.7-5.6-11.1-9.5-18.2-11.2c-9.6-2.5-19.8-0.5-27.8,5.4
		c-0.5,0.4-1,0.8-1.6,1.1c-4.9-9.8-16-14.4-24.5-20.8c-15.5-10.2-37.4-23-32.7-43.1c3.9-3.7,7.2-8,9.8-12.7L435.1,165.4z"/>
	<path class="st0" d="M353.6,143.1c5.2-1.9,11-3.3,16.1-4.9c-1.4,1.4-1,3.7-1.1,5.4c-5.6,1.9-11.4,3-16.8,4.9
		C351.2,146.5,352,144.4,353.6,143.1L353.6,143.1z"/>
	<path class="st2" d="M380.5,143.4c12.9-2.4,26.1-3.2,39.2-2.1c4.4,5.1,7.8,10.9,10,17.3c-1.7,7.3-6.7,13.3-13.5,16.5v8h-4.2
		c1.5,17.7,12.2,33.4,28.2,41.2c-5.7,0.2-11.3-1-16.4-3.5c-15.5-9.2-17-31.6-12-48.9c-11.9,11.3-17.7,50.4,6.3,60.5
		c-8.2,8.6-15.8,17.8-22.9,27.4h-16.8c5-7.7,10.6-15.1,16.6-22c-12.2,4.3-23,12-31.2,22h-32.5l-1.9-1.3c14.6-25.1,35.5-46,60.6-60.6
		c-11.4,0-23.8-0.4-28.7,1.4c15.5-19.8,36.8-34.1,60.9-41.1c-1.9,0-43-3.6-86,34.3l17.2-0.7c-21.5,13.2-35.9,27.3-53.3,50.5
		c-7.9-3.6-22.3-7.5-30.6-10.3c37.3-50.9,101.1-79.6,101.1-79.6c-46.6,12.9-94.7,41.6-121.4,76.9c-5.3-1.1-10.7-1.9-16.2-2.2
		c32.6-32.2,71.4-57.3,114.1-73.9C358.2,149.1,369.3,145.9,380.5,143.4L380.5,143.4z"/>
	<path class="st2" d="M476.6,141.9c2.7,0.6,5.4,1.5,7.9,2.7c11,3.7,21.1,9.5,29.9,17.1c4.4,5.9,0.3,12.4,0.8,19.1
		c-1.1,17.7,9.3,32.3,18.5,46.6c-9.1-5.8-16.3-14.1-20.8-23.9c-4.9-11.3-3.8-25.2-3.1-37.7c-0.8-1.6-2-3-3.4-4.1
		c-8-7.8-20.3-14-29.9-19.6L476.6,141.9z"/>
	<path class="st2" d="M432,154.8c-0.6-2.4-3.6-4.3-2.7-6.8l3.6,2.7C433.1,152.2,432.8,153.6,432,154.8L432,154.8z"/>
	<path class="st1" d="M464.6,162.4c-1.4-3.9-0.2-8.2,2.9-10.8c3.3,8.8,14.7,10.4,19.3,17.9c3.4,7.3,2.5,17.9,10,23.5
		c-4.8,0.4-9.5-0.5-13.9-2.4c-4.4,1.6-9.1,1.9-13.6,0.8c-3.7-0.5-7-2.5-9.2-5.5c-4-7.9-2.3-17.4,4.3-23.4L464.6,162.4z"/>
	<path class="st0" d="M315.6,159.8c5.6-2.9,10.7-5.9,16.6-8.3l-0.8,1.6c0,1.9,0.3,3,1,3.1c-4.9,2.6-9.6,4.9-15.6,7.7l-2.8,1.2
		C313.2,163.1,313.9,160.9,315.6,159.8L315.6,159.8z"/>
	<path class="st0" d="M274,157.3c1.5-0.8,10.4-2,16.8-3.6c-4.9,6.4-5.1,15.1-0.5,21.7l4.5-3.1c-0.1,1.1,0,2.2,0.5,3.2
		c-4,2.8-8.2,5.3-12.5,7.5c-0.7-2.8,2.7-3.7,3.9-5.4c-2.9-4.9-4-10.6-3.2-16.2c-1.4,0.3-1.5,1.5-2.4,1.9l-49.8,46.3
		c-7.9,7.4-16.5,15.6-23.4,22.7c20-27.9,49.8-52,74.5-74.5C279.5,158,276.8,157.8,274,157.3L274,157.3z"/>
	<path class="st0" d="M477.8,173.9c-0.7-6.2-11.1-9.1-10.4-15.4c3.1,2.6,6.3,4.9,9.8,7c9.8,4.4,4.9,15.2,10,21.8
		C480,185.7,479.5,178.8,477.8,173.9z"/>
	<path class="st0" d="M296.4,172.9c-0.5-2.7,10.5-7.8,15.7-11.2c-0.6,1.4-0.7,3-0.3,4.5c-4.9,2.5-9.8,5.9-15.2,8.3L296.4,172.9
		L296.4,172.9z"/>
	<path class="st2" d="M466.8,175c0.5-1.6,1.4-3.1,2.5-4.3c1,1.5,2.3,2.8,3.8,3.9c0,0-4.9,2.5-1.7,9.4l-1.5-0.4
		c-2.9-1.8-4.2-5.3-3.3-8.6H466.8z"/>
	<path class="st0" d="M267.4,193.5c4.3-3.9,8.8-7.5,13.5-10.9c-0.6,0.6,0,1.3,0,1.9l-13.7,9.8v-0.6L267.4,193.5z"/>
	<path class="st0" d="M446.5,227.1c2.8,1.8,7,2.8,10,4.6c1,2.3,2,4.4,3.1,6.6c-2.2,0.1-4.4,0.6-6.4,1.5
		C450.6,235.8,448.3,231.5,446.5,227.1z"/>
	<path class="st2" d="M464,237.7c-1.5-0.8-1.6-2.8-2.5-4.2l3.8,2.5C465.6,237.1,464.6,237.2,464,237.7z"/>
	<path class="st2" d="M503.8,243.4c1.4-2.2,4-3.3,6.6-2.9c4.4,1.4,8.4,3.7,11.8,6.9c3.3,2.6,3.7,7,8.7,7.5c3.1-1.8,3.7-4.9,7.2-6.2
		c2.4-0.7,5-0.2,7.1,1.2c2.3,2.1,1.4,3.2,1.1,4.9c-0.5,1.5-1.7,2.7-3.2,3c0-1.3,0.8-3.2-0.5-4.3c-1.3-1.1-1.5,0-2.2,0
		c-7.2,4.6-2.2,14.7-9.5,19.6c-7.5,2.6-15.8,1.7-22.6-2.5c-6.5-4.9-6.5-12.8-11.6-18.1c-3.3-2.4-13.6-1.1-21.8-2.1
		c-1.1-0.5-2.8-0.8-2.5-2.3c1.1-0.9,1.8-2.7,3.6-2.6c0.8,0.7,0.8,1.4,1.1,2.5c0.3,1.1,2.4,1.5,3.7,2.1c5.6,0.6,13.1-1.4,17.7,1.8
		c5.8,5.3,5.4,14.3,12.6,18.8c5.5,2.2,11.6,2.5,17.2,0.7c3.2-4.4,3-10.3-0.5-14.4c-0.2,0.4-0.3,0.9-0.4,1.4
		c-3.6,3.7-10.3,2.7-15.5,1.5C504.8,256.7,500.6,248.3,503.8,243.4z"/>
	<path class="st0" d="M453.5,243.9c1.2-1.1,2.5-1.9,4.1-2.3c2.6-0.3,5.2,0.3,7.3,1.8c2.4,2.2,2.6,5.9,0.5,8.3
		c-0.2,0.3-0.5,0.5-0.8,0.7c1.1-3.3-0.5-6.8-3.6-8.3c-2.4-1.1-5.1-1.1-7.5,0L453.5,243.9z"/>
	<path class="st1" d="M504.9,246c0.7-2.4,2.9-3,5.5-3.3c5.4,1.1,9.9,4.8,12.2,9.8c0.5,2.1,1.4,4,0,6c-0.3-0.9-1-4.3-3.6-5.2
		c-0.4,1.8-1.6,3.4-3.2,4.4c-1.4,0.4-2.9,0.4-4.3,0c-4.2-2.4-6.8-7-6.6-11.9V246z"/>
	<path class="st2" d="M413.5,259.7c3.4-3.9,7.1-7.5,10.9-11c-2.4,3.6-4.6,7.3-6.8,11H413.5z"/>
	<path class="st2" d="M483.5,259.7c3.4-0.4,6.9-0.1,10.2,0.8c2.8,4.8,6,9.3,9.8,13.5c-3,0-6.1-0.4-9-1.3c-8.3-3.7-8.8-7.8-11.2-12.9
		H483.5z"/>
	<path class="st2" d="M481.9,274.8c-4.6-4-7.2-9.8-7.2-15.9c3.7,8.4,13.4,18.3,22.5,18.9C491.9,278.2,486.6,277.2,481.9,274.8z"/>
	<path class="st1" d="M596.9,489.9h-2.1v-8.3h-3.1v-1.8h8.3v1.8h-3.1L596.9,489.9z"/>
	<path class="st1" d="M611.4,489.9h-2v-8.3l0,0l-1.9,8.5h-2.1l-1.9-8.5l0,0v8.5h-2v-10.4h3.1l1.9,8l0,0l1.8-8h3.1L611.4,489.9z"/>
	<path class="st0" d="M300.5,398.1c0-0.8,1.5-3.6,3.1-3.3v-4.4c-6.5,1.3-12.8,2.9-19.1,4.4v4.4c0.7-0.1,1.3-0.1,2,0
		c1.9,0.6,1.1,9,1.1,10.7c-3.7,0.9-7.4,1.8-11,2.9c0-3.5-2.1-9.8,2.8-12.1v-4.4c-6.4,1.7-12.6,3.6-18.7,5.6v4.4h1.3
		c0.7-0.2,1.5,0.2,1.7,0.9c0,0,0,0,0,0c0,0.1,0,0.3,0,0.5l0.4,0.3h-0.3v24.9c0.4,2.6-0.8,5.3-3.1,6.6v4.4c6.1-2.1,12.3-4,18.8-5.5
		v-4.4c-1.6,0-2.3-0.3-2.6-1.1v-9.4l-7.4-1.7l12.2-2.9l6.1-1.5v8.3c0,3,1,4.6-3.1,6.4v4.4c6-1.5,11.9-2.9,18-4.1h1.1v-4.5
		c0,0-3.1,0.8-3.1-8.9l0,0L300.5,398.1z"/>
	<path class="st0" d="M475.5,418.8c-0.4,3.9-2.2,3.8-6.9,3c-2.7-0.4-5.5-0.9-8.2-1.3v-8.3l-9.4-4.9c10.7,1.8,18.3,1.6,18.6,5.8
		l4.5,0.8v-12.8l-4.5-0.8c-0.6,4.2-5.7,1.8-9.3,1.3v-8c7.4,1.1,13,0,14.7,6.6c1.6,0.3,3.3,0.6,4.9,1v-11.7
		c-11.7-2.2-23.5-4.1-35.4-5.5v4.4c4.6,1.1,3.3,7,3.3,9.8v5.6c0.3,4.9-0.1,9.9-1.1,14.7c-0.5,1.5-1.2,2.5-2.2,2.5v4.4
		c12,1.4,24,3.2,35.8,5.5v-11.2C478.7,419.3,477.1,419,475.5,418.8z"/>
	<path class="st0" d="M346.9,419.5c-0.2-0.2-0.3-0.5-0.4-0.7c-2.3-4.9-9.4-29.7-10.8-33.8c-5.2,0.5-10.3,1.4-15.3,2.2
		c-3.2,10.5-5.9,21-9.1,31.5l0,0l-0.6,1.9c-0.8,2.5-2.3,4.8-4.2,6.6v4.3c4.9-1.1,9.5-1.8,14.3-2.6v-4.5c-3.5,0-2.1-4.4-2.1-4.4
		l-3.9-1.2l-1-0.3c3.7-0.8,13.5-2.4,17.3-2.8c0.3,1.1,0.7,2.1,1,3.1c0.2,0.8,0.4,1.6,0.4,2.5c0,1.1-1.4,1.3-2.5,1.6v4.6
		c6.5-0.9,13-1.8,19.6-2.3v-4.5C348.3,420.2,347.7,420.3,346.9,419.5z M321.9,409.2c0.9-4.2,2.1-8.3,3.7-12.3
		c0.8,3.8,2.7,7.4,3.4,11.2L321.9,409.2z"/>
	<path class="st0" d="M439.8,407.1v-4.4c-5.8-0.6-11.6-1.1-17.4-1.4v4.4c4.4,0.9,2.9,8.7,2.8,11.1c-19.6,0-12.4-35.2,0.3-27.3
		c3.4,2.1,3.1,3.7,2.8,6.7l3.9,2.5c1.7-2.8,3.5-5.5,5.5-8.1c-14-18.7-37.3-8.3-37.9,10.6c-0.2,6.7,2.4,13.1,7.2,17.7l0,0
		c3.2,2.9,7.3,4.6,11.6,4.9c7,0.6,14.1,0.8,21.1,1.6v-4.4c-0.9-0.4-1.5-1.2-1.8-2.1l0,0c-1.4-3.5-1.4-7.5,0-11
		C438.6,407.5,439.2,407.2,439.8,407.1z"/>
	<path class="st0" d="M566.5,445.9c0.1-1.4,0-2.8-0.4-4.1l-1.1-3.3c-0.8-2.3-2.1-4.4-3.9-6.1c-4.3-4.2-10.5-6.1-15.5-10.9
		c-0.8-0.7-1.4-1.7-1.7-2.7l0,0c-0.4-1.5,0-3,2.6-3.4c2.4,0.5,4.7,1.7,6.5,3.4c1.5,1.3,2.2,3.3,2,5.2c1.1,1.3,2.2,2.5,3.4,3.8
		c2.2-1.3,4.6-2.3,7-3.1c-0.9-2.1-2.2-4.1-3.7-5.9l0,0c-5.6-6.8-15.9-14.3-24.9-10.8c-3.7,2.2-5.7,6.5-4.9,10.8c0,0.2,0,0.5,0,0.7
		c2,5.4,5.9,10,10.9,12.8l0,0c6.3,4.4,12.7,7.5,11.5,11.3c-1.7,4.9-13.4-0.7-13.3-8.6c-0.8-0.8-1.6-1.7-2.3-2.7l0,0l-0.9-1.1
		l-2.1,1.1c-2,1.2-3.9,2.5-5.7,3.7c0,0.4,0.3,0.6,0.5,0.9c1.9,3.4,4.4,6.4,7.2,9l0,0c5,4.2,11,6.9,17.5,7.9c4.6,1.5,9.6-1,11.2-5.6
		c0.3-0.8,0.4-1.6,0.4-2.4l0,0L566.5,445.9z"/>
	<path class="st0" d="M239.8,442.5c-3.7-1.1-5.4-5.3-5.6-10.1l0,0c-0.2-4.8,1-9.5,3.5-13.6l0,0c1.5-3,4.7-4.6,8-4.1
		c1.3,0.9,2,2.5,1.7,4.1c-0.1,0.9-0.4,1.7-0.9,2.5c1.4,0.3,2.7,0.7,4,1.2l2.3-3.6c1.6-2.5,3.3-4.9,4.9-7.4
		c-7.7-10.5-21.2-3.8-29.4,7.4c-3.1,4-5.3,8.7-6.7,13.6c-1.1,3.9-1.1,8,0,11.9c0.2,0.6,0.4,1.1,0.6,1.7l0,0
		c4.9,11.6,20.6,6.1,30.6,0l3-2v-10.8l-4.3,1.6C250.2,438,245.7,444.2,239.8,442.5z"/>
	<path class="st0" d="M385.6,404.6c1.3-0.7,2.6-1.6,3.8-2.6c4.8-4.5,5-12.1,0.5-16.9c-2.6-2.8-6.5-4.1-10.3-3.6
		c-8.3,0-16.8,0.7-25,1.5v4.4c1.4-0.3,2.7,0.6,3,2c0,0,0,0,0,0c0,0.3,0,0.5,0,0.8v26.3c0,0.9-0.3,1.7-0.8,2.5
		c-0.2,0.2-0.4,0.5-0.6,0.6l-0.5,0.4c-0.3,0.2-0.7,0.3-1.1,0.4v4.4c6-0.5,12.1-0.9,18.2-1.2v-4.4l-0.5-0.4c-1.8-1.2-1.8-5.4-1.6-8.5
		l-4.9-3h7.3l6.8,11.6l2.5,4.4h14V419C392.1,418,387.2,407.2,385.6,404.6z M377.3,399.6c-2.2,0.7-4.4,1-6.7,1V389
		c2.3-0.4,4.6-0.4,6.9,0c3.9,3.7,2.6,6.8-0.4,10.4L377.3,399.6z"/>
	<path class="st0" d="M520.9,432.3L520.9,432.3c-2.2-3.9-4.1-8.6-5.2-11c1.3-0.3,2.6-0.8,3.8-1.4c0.5-0.3,1-0.7,1.4-1.2
		c2-2.7,2.7-6.1,1.9-9.4c-3.2-13.9-22.5-15.5-38.2-19v4.4c4.9,1.4,3.5,8.9,3.6,11.8v12.2l0,0c-0.2,8.2-3.3,9-3.3,9v4.4h1.1
		c5.7,1.2,11.5,2.4,17,4v-4.4c-2.3-1.5-2.4-5.4-2.2-8.7l-6.2-4.4l-1.9-1.3l5.2,1.3l4.9,1.3c2,4.1,4.1,8.2,6.1,12.3l3.2,6.5
		c4.9,1.3,9.3,2.7,14,4.2v-4.4C523.8,436.8,522,434.8,520.9,432.3z M507.2,413.6c-2.2,0-4.4-0.3-6.6-1v-11.3
		c2.4,0.4,4.7,1.1,6.8,2.2c2.7,2.2,3.2,6.1,1,8.9c0,0,0,0,0,0C508.1,412.9,507.6,413.3,507.2,413.6L507.2,413.6z"/>
</g>
</svg>
